[h264 @ 0x5608c88f3440] Reinit context to 1280x720, pix_fmt: yuv420p
Input #0, mov,mp4,m4a,3gp,3g2,mj2, from '/var/www/html/project/media/video/original/20250528_MERCATO_SARACENO_FC_MALTEMPO_TV.mp4':
  Metadata:
    major_brand     : mp42
    minor_version   : 1
    compatible_brands: isommp41mp42
    creation_time   : 2025-05-28T08:00:09.000000Z
  Duration: 00:00:22.60, start: 0.000000, bitrate: 4311 kb/s
    Stream #0:0(eng): Audio: aac (LC) (mp4a / 0x6134706D), 44100 Hz, stereo, fltp, 126 kb/s (default)
    Metadata:
      creation_time   : 2025-05-28T08:00:09.000000Z
      handler_name    : Core Media Audio
    Stream #0:1(und): Video: h264 (High), 1 reference frame (avc1 / 0x31637661), yuv420p(tv, bt709, progressive, left), 1280x720, 4135 kb/s, SAR 1:1 DAR 16:9, 25 fps, 25 tbr, 25k tbn, 50k tbc (default)
    Metadata:
      creation_time   : 2025-05-28T08:00:09.000000Z
      handler_name    : Core Media Video
Input #1, png_pipe, from '/var/www/html/project/static/images/templates/logo.png':
  Duration: N/A, bitrate: N/A
    Stream #1:0: Video: png, 1 reference frame, rgba(pc), 1920x1080 [SAR 2835:2835 DAR 16:9], 25 tbr, 25 tbn, 25 tbc
[h264 @ 0x5608c89168c0] Reinit context to 1280x720, pix_fmt: yuv420p
Input #2, mov,mp4,m4a,3gp,3g2,mj2, from '/var/www/html/project/static/images/templates/Codino.mp4':
  Metadata:
    major_brand     : mp42
    minor_version   : 1
    compatible_brands: isommp41mp42
    creation_time   : 2021-07-11T07:02:58.000000Z
  Duration: 00:00:02.00, start: 0.000000, bitrate: 1007 kb/s
    Stream #2:0(ita): Audio: aac (LC) (mp4a / 0x6134706D), 44100 Hz, stereo, fltp, 102 kb/s (default)
    Metadata:
      creation_time   : 2021-07-11T07:02:58.000000Z
      handler_name    : Core Media Audio
    Stream #2:1(und): Video: h264 (High), 1 reference frame (avc1 / 0x31637661), yuv420p(tv, bt709, progressive, left), 1280x720 [SAR 1:1 DAR 16:9], 813 kb/s, 25 fps, 25 tbr, 25k tbn, 50k tbc (default)
    Metadata:
      creation_time   : 2021-07-11T07:02:58.000000Z
      handler_name    : Core Media Video
[Parsed_scale_0 @ 0x5608c894e940] w:1280 h:720 flags:'bilinear' interl:0
[Parsed_scale_2 @ 0x5608c8924800] w:1280 h:720 flags:'bilinear' interl:0
[Parsed_scale_4 @ 0x5608c8972d80] w:1280 h:720 flags:'bilinear' interl:0
Stream mapping:
  Stream #0:0 (aac) -> concat:in0:a0
  Stream #0:1 (h264) -> scale
  Stream #1:0 (png) -> scale
  Stream #2:0 (aac) -> concat:in1:a0
  Stream #2:1 (h264) -> scale
  concat:out:v0 -> Stream #0:0 (libx264)
  concat:out:a0 -> Stream #0:1 (aac)
Press [q] to stop, [?] for help
[h264 @ 0x5608c891b980] Reinit context to 1280x720, pix_fmt: yuv420p
[h264 @ 0x5608c8d0f180] Reinit context to 1280x720, pix_fmt: yuv420p
[Parsed_scale_0 @ 0x5608c9ca6580] w:1280 h:720 flags:'bilinear' interl:0
[Parsed_scale_2 @ 0x5608c8a57780] w:1280 h:720 flags:'bilinear' interl:0
[Parsed_scale_4 @ 0x5608c9cafa80] w:1280 h:720 flags:'bilinear' interl:0
[graph 0 input from stream 0:1 @ 0x5608c9cb4100] w:1280 h:720 pixfmt:yuv420p tb:1/25000 fr:25/1 sar:1/1 sws_param:flags=2
[graph 0 input from stream 1:0 @ 0x5608c9cb5180] w:1920 h:1080 pixfmt:rgba tb:1/25 fr:25/1 sar:2835/2835 sws_param:flags=2
[graph 0 input from stream 2:1 @ 0x5608c9cb6200] w:1280 h:720 pixfmt:yuv420p tb:1/25000 fr:25/1 sar:1/1 sws_param:flags=2
[graph_0_in_0_0 @ 0x5608c9cb7180] tb:1/44100 samplefmt:fltp samplerate:44100 chlayout:0x3
[graph_0_in_2_0 @ 0x5608c9cb82c0] tb:1/44100 samplefmt:fltp samplerate:44100 chlayout:0x3
[Parsed_scale_0 @ 0x5608c9ca6580] w:1280 h:720 fmt:yuv420p sar:1/1 -> w:1280 h:720 fmt:yuv420p sar:1/1 flags:0x2
[Parsed_setsar_1 @ 0x5608c9cae200] w:1280 h:720 sar:1/1 dar:16/9 -> sar:1/1 dar:16/9
[Parsed_scale_2 @ 0x5608c8a57780] w:1920 h:1080 fmt:rgba sar:2835/2835 -> w:1280 h:720 fmt:yuva420p sar:1/1 flags:0x2
[Parsed_setsar_3 @ 0x5608c9caee80] w:1280 h:720 sar:1/1 dar:16/9 -> sar:1/1 dar:16/9
[Parsed_overlay_6 @ 0x5608c9cb1100] main w:1280 h:720 fmt:yuv420p overlay w:1280 h:720 fmt:yuva420p
[Parsed_overlay_6 @ 0x5608c9cb1100] [framesync @ 0x5608c9cb1228] Selected 1/25000 time base
[Parsed_overlay_6 @ 0x5608c9cb1100] [framesync @ 0x5608c9cb1228] Sync level 2
[Parsed_scale_4 @ 0x5608c9cafa80] w:1280 h:720 fmt:yuv420p sar:1/1 -> w:1280 h:720 fmt:yuv420p sar:1/1 flags:0x2
[Parsed_setsar_5 @ 0x5608c9cb0540] w:1280 h:720 sar:1/1 dar:16/9 -> sar:1/1 dar:16/9
[libx264 @ 0x5608c8918000] using SAR=1/1
[libx264 @ 0x5608c8918000] using cpu capabilities: MMX2 SSE2Fast SSSE3 SSE4.2 AVX FMA3 BMI2 AVX2
[libx264 @ 0x5608c8918000] profile High, level 3.1
[libx264 @ 0x5608c8918000] 264 - core 155 r2917 0a84d98 - H.264/MPEG-4 AVC codec - Copyleft 2003-2018 - http://www.videolan.org/x264.html - options: cabac=1 ref=1 deblock=1:0:0 analyse=0x3:0x113 me=hex subme=2 psy=1 psy_rd=1.00:0.00 mixed_ref=0 me_range=16 chroma_me=1 trellis=0 8x8dct=1 cqm=0 deadzone=21,11 fast_pskip=1 chroma_qp_offset=0 threads=22 lookahead_threads=5 sliced_threads=0 nr=0 decimate=1 interlaced=0 bluray_compat=0 constrained_intra=0 bframes=3 b_pyramid=2 b_adapt=1 b_bias=0 direct=1 weightb=1 open_gop=0 weightp=1 keyint=250 keyint_min=25 scenecut=40 intra_refresh=0 rc_lookahead=10 rc=crf mbtree=1 crf=18.0 qcomp=0.60 qpmin=0 qpmax=69 qpstep=4 ip_ratio=1.40 aq=1:1.00
Output #0, mp4, to '/var/www/html/project/media/video/watermarks/20250528_MERCATO_SARACENO_FC_MALTEMPO_TV.mp4':
  Metadata:
    major_brand     : mp42
    minor_version   : 1
    compatible_brands: isommp41mp42
    encoder         : Lavf58.29.100
    Stream #0:0: Video: h264 (libx264), 1 reference frame (avc1 / 0x31637661), yuv420p(progressive), 1280x720 [SAR 1:1 DAR 16:9], q=-1--1, 25 fps, 12800 tbn, 25 tbc (default)
    Metadata:
      encoder         : Lavc58.54.100 libx264
    Side data:
      cpb: bitrate max/min/avg: 0/0/0 buffer size: 0 vbv_delay: -1
    Stream #0:1: Audio: aac (LC) (mp4a / 0x6134706D), 44100 Hz, stereo, fltp, delay 1024, 128 kb/s (default)
    Metadata:
      encoder         : Lavc58.54.100 aac
[Parsed_concat_7 @ 0x5608c9cb2240] EOF on in0:a0, 1 streams left in segment.
[Parsed_overlay_6 @ 0x5608c9cb1100] [framesync @ 0x5608c9cb1228] Sync level 0
[Parsed_concat_7 @ 0x5608c9cb2240] EOF on in0:v0, 0 streams left in segment.
[Parsed_concat_7 @ 0x5608c9cb2240] Segment finished at pts=22614785
[Parsed_concat_7 @ 0x5608c9cb2240] EOF on in1:a0, 1 streams left in segment.
[Parsed_concat_7 @ 0x5608c9cb2240] EOF on in1:v0, 0 streams left in segment.
[Parsed_concat_7 @ 0x5608c9cb2240] Segment finished at pts=24633470
No more output streams to write to, finishing.
frame=  615 fps= 71 q=-1.0 Lsize=   11762kB time=00:00:24.63 bitrate=3911.1kbits/s speed=2.83x    
[AVIOContext @ 0x5608c88efec0] Statistics: 0 seeks, 18 writeouts
video:11361kB audio:380kB subtitle:0kB other streams:0kB global headers:0kB muxing overhead: 0.182101%
Input file #0 (/var/www/html/project/media/video/original/20250528_MERCATO_SARACENO_FC_MALTEMPO_TV.mp4):
  Input stream #0:0 (audio): 976 packets read (357759 bytes); 974 frames decoded (997312 samples); 
  Input stream #0:1 (video): 565 packets read (11681569 bytes); 565 frames decoded; 
  Total: 1541 packets (12039328 bytes) demuxed
Input file #1 (/var/www/html/project/static/images/templates/logo.png):
  Input stream #1:0 (video): 1 packets read (111578 bytes); 1 frames decoded; 
  Total: 1 packets (111578 bytes) demuxed
Input file #2 (/var/www/html/project/static/images/templates/Codino.mp4):
  Input stream #2:0 (audio): 89 packets read (26579 bytes); 87 frames decoded (89024 samples); 
  Input stream #2:1 (video): 50 packets read (203365 bytes); 50 frames decoded; 
  Total: 139 packets (229944 bytes) demuxed
Output file #0 (/var/www/html/project/media/video/watermarks/20250528_MERCATO_SARACENO_FC_MALTEMPO_TV.mp4):
  Output stream #0:0 (video): 615 frames encoded; 615 packets muxed (11633295 bytes); 
  Output stream #0:1 (audio): 1061 frames encoded (1086336 samples); 1062 packets muxed (389162 bytes); 
  Total: 1677 packets (12022457 bytes) muxed
[AVIOContext @ 0x5608c893c040] Statistics: 2 seeks, 49 writeouts
[libx264 @ 0x5608c8918000] frame I:4     Avg QP:11.31  size: 78059
[libx264 @ 0x5608c8918000] frame P:181   Avg QP:16.33  size: 33483
[libx264 @ 0x5608c8918000] frame B:430   Avg QP:19.36  size: 12233
[libx264 @ 0x5608c8918000] consecutive B-frames:  3.7%  7.5%  4.9% 83.9%
[libx264 @ 0x5608c8918000] mb I  I16..4: 44.6% 16.4% 39.1%
[libx264 @ 0x5608c8918000] mb P  I16..4: 14.4% 19.1%  7.6%  P16..4: 21.4% 11.3%  8.3%  0.0%  0.0%    skip:17.8%
[libx264 @ 0x5608c8918000] mb B  I16..4:  4.4%  7.9%  1.2%  B16..8: 20.4%  8.2%  1.4%  direct:22.2%  skip:34.4%  L0:40.3% L1:41.2% BI:18.5%
[libx264 @ 0x5608c8918000] 8x8 transform intra:50.8% inter:51.6%
[libx264 @ 0x5608c8918000] coded y,uvDC,uvAC intra: 47.0% 65.3% 18.4% inter: 19.1% 45.7% 2.0%
[libx264 @ 0x5608c8918000] i16 v,h,dc,p: 60% 22% 11%  6%
[libx264 @ 0x5608c8918000] i8 v,h,dc,ddl,ddr,vr,hd,vl,hu: 21% 40% 19%  3%  3%  2%  4%  2%  5%
[libx264 @ 0x5608c8918000] i4 v,h,dc,ddl,ddr,vr,hd,vl,hu: 21% 34% 11%  5%  6%  4%  8%  4%  6%
[libx264 @ 0x5608c8918000] i8c dc,h,v,p: 42% 30% 19%  9%
[libx264 @ 0x5608c8918000] Weighted P-Frames: Y:18.2% UV:13.8%
[libx264 @ 0x5608c8918000] kb/s:3782.96
[aac @ 0x5608c8aa4540] Qavg: 2039.639
[AVIOContext @ 0x5608c88f8e40] Statistics: 39344135 bytes read, 1102 seeks
[AVIOContext @ 0x5608c88f4bc0] Statistics: 111578 bytes read, 0 seeks
[AVIOContext @ 0x5608c88f8bc0] Statistics: 1530915 bytes read, 42 seeks
